inDegrees=no
num_controls=7
num_derivatives=13
num_iterations=112
num_multipliers=7
num_parameters=0
num_slacks=7
num_states=26
objective=0.477120
objective_accelerations=0.044793
objective_balance=0.003609
objective_effort=0.040880
objective_height=0.382177
objective_ligament=0.005661
solver_duration=1499.660642
status=Solve_Succeeded
success=true
DataType=double
version=3
OpenSimVersion=4.5
endheader
time	/jointset/ground_pelvis/pelvis_tilt/value	/jointset/ground_pelvis/pelvis_tx/value	/jointset/ground_pelvis/pelvis_ty/value	/jointset/hip_l/hip_flexion_l/value	/jointset/hip_l/hip_adduction_l/value	/jointset/hip_l/hip_rotation_l/value	/jointset/back/lumbar_extension/value	/jointset/patellofemoral_l/patellar_flexion_l/value	/jointset/knee_l/knee_flexion_l/value	/jointset/knee_l/knee_adduction_l/value	/jointset/knee_l/knee_rotation_l/value	/jointset/ankle_l/ankle_angle_l/value	/jointset/subtalar_l/subtalar_angle_l/value	/jointset/ground_pelvis/pelvis_tilt/speed	/jointset/ground_pelvis/pelvis_tx/speed	/jointset/ground_pelvis/pelvis_ty/speed	/jointset/hip_l/hip_flexion_l/speed	/jointset/hip_l/hip_adduction_l/speed	/jointset/hip_l/hip_rotation_l/speed	/jointset/back/lumbar_extension/speed	/jointset/patellofemoral_l/patellar_flexion_l/speed	/jointset/knee_l/knee_flexion_l/speed	/jointset/knee_l/knee_adduction_l/speed	/jointset/knee_l/knee_rotation_l/speed	/jointset/ankle_l/ankle_angle_l/speed	/jointset/subtalar_l/subtalar_angle_l/speed	/forceset/tau_hip_flexion_l	/forceset/tau_hip_adduction_l	/forceset/tau_hip_rotation_l	/forceset/tau_knee_flexion_l	/forceset/tau_ankle_angle_l	/forceset/tau_subtalar_angle_l	/forceset/tau_lumbar_extension	lambda_cid13_p0	lambda_cid13_p1	lambda_cid13_p2	lambda_cid13_p3	lambda_cid13_p4	lambda_cid13_p5	lambda_cid14_p0	/jointset/ground_pelvis/pelvis_tilt/accel	/jointset/ground_pelvis/pelvis_tx/accel	/jointset/ground_pelvis/pelvis_ty/accel	/jointset/hip_l/hip_flexion_l/accel	/jointset/hip_l/hip_adduction_l/accel	/jointset/hip_l/hip_rotation_l/accel	/jointset/back/lumbar_extension/accel	/jointset/patellofemoral_l/patellar_flexion_l/accel	/jointset/knee_l/knee_flexion_l/accel	/jointset/knee_l/knee_adduction_l/accel	/jointset/knee_l/knee_rotation_l/accel	/jointset/ankle_l/ankle_angle_l/accel	/jointset/subtalar_l/subtalar_angle_l/accel	gamma_cid13_p0	gamma_cid13_p1	gamma_cid13_p2	gamma_cid13_p3	gamma_cid13_p4	gamma_cid13_p5	gamma_cid14_p0
1	-0.1138236416341709	-0.05882984743054815	0.6795850611267791	1.337989958801442	-0.3277639345373333	0.07451995757515141	-0.959930967907576	1.405374434059233	1.405374434059292	-0.06511265580636222	-0.1745308760604901	0.2794111219822632	0.06534893840222483	0.1043594358603646	0.02572854470524716	0.0716921359845268	-0.3039014233339919	-0.007683530771225383	-0.06657994904171764	-0.0001169847462678991	-0.1646201965954365	-0.1646201965954363	-0.002363812600270366	-1.482079082869367e-07	0.02584542428430146	0.002334345313616869	-0.3770613993446078	0.02931811318959247	0.001344461073359417	-0.3755221461535058	0.0404999403966971	0.015892911784283	0.4280121667645924	-38.79977736505037	1.890847082517011	-3.039760063026346	14.09284907991313	-801.1672997136046	-58.08551086309635	-0.04146414870056201	0.8471489419497054	-0.01329860537428753	1.56667283835383	-5.042077186654186	-0.1334813663666011	-1.675094951891853	0.00373261785649023	-5.04418779003039	-5.044187790030562	-0.3621207886999693	-0.01435671988746553	-1.20743639873435	-0.6827656283299554	-8.523906641240212e-09	2.073520939337107e-08	6.665548353848652e-08	5.138140539605077e-09	-2.271989310002674e-08	1.307744781913838e-07	-1.751857595947541e-08
1.01	-0.1127382117094567	-0.05857317148251289	0.6803800104514088	1.334700071587369	-0.3278466915806308	0.07376962410761657	-0.9599310885968813	1.403476612681132	1.403476612681108	-0.06515245469104163	-0.1745306836475365	0.279609322907018	0.06533921028859076	0.1127115435084028	0.02561308568883164	0.08727731574243947	-0.3540181333795278	-0.008858166679023687	-0.08347525100495556	0.0001312425608819796	-0.2149148396885328	-0.2149148396885394	-0.005589711231623755	3.524208500799299e-05	0.01378329363324818	-0.004272192582733101	-0.3761250790896709	0.02952274527517431	0.001263700233162567	-0.3751618831201103	0.04039132818806859	0.01601581946525838	0.4275164729195522	-38.78253804150695	1.822906307631448	-3.015742949039908	13.93772309747128	-800.5593245949858	-58.11505450717081	-0.04149832477397546	0.82698859676839	-0.009701397079419227	1.551372916619348	-4.987787951008188	-0.108006203099675	-1.695041907454007	0.0412272624765113	-5.017711875035097	-5.017711875035979	-0.3018978791457161	0.01200203390230486	-1.207321282452583	-0.6484449029031824	-1.439655927346492e-08	1.302248211897187e-08	9.613108112477844e-08	1.012277011214856e-08	-2.818501642287506e-08	1.498821402775722e-07	-2.390293533091124e-08
1.02	-0.1115697113241534	-0.05831745649410271	0.6813301980480397	1.330910753265344	-0.3279409052830284	0.07285067880266451	-0.9599275617929837	1.401076723010883	1.401076723010771	-0.06522432725779426	-0.1745302343056507	0.2796865585484299	0.06526364738946992	0.1209735279779409	0.02553635278023235	0.102739790384724	-0.4037876449252603	-0.009974862591349913	-0.1003023165247632	0.0006138488813196364	-0.2650338550250639	-0.2650338550250746	-0.008778549014687531	5.12375787684688e-05	0.001652367615723627	-0.01083261178371027	-0.3751887588347201	0.02972737736075264	0.001182939393008655	-0.3748016200867131	0.04028271597943677	0.01613872714622698	0.4270207790745251	-38.77648108555702	1.757652044884697	-2.992986438974341	13.84025859406343	-800.097181695405	-58.12129530150347	-0.04153328764373158	0.8291243062496705	-0.005553383811034937	1.542131815228207	-4.972637486693524	-0.1218933672721899	-1.661447663205798	0.05060842051402779	-5.009062238717344	-5.00906223871698	-0.3547086190420506	-0.01823567971863182	-1.221195472028598	-0.6735418892553957	-2.177112415623484e-08	4.137856781352094e-09	1.238560684997048e-07	1.788000285479592e-08	-3.586113377512525e-08	1.664628567441957e-07	-2.99215494363306e-08
1.03	-0.1103194246133012	-0.05806210199221964	0.6824344146992211	1.326625540223289	-0.3280459706706809	0.07176385284982696	-0.9599163507283911	1.398176423691836	1.398176423691862	-0.06532795550449606	-0.1745296658701511	0.2796423688793805	0.06512286071331325	0.1290308724299698	0.02556254577993321	0.1180851137043067	-0.4531920505752514	-0.01102785809745507	-0.1170503988494176	0.001835702925478277	-0.3150074277422125	-0.3150074277422102	-0.01194542607417767	6.059841681764026e-05	-0.01047928326325807	-0.01730469474239773	-0.3756008226964299	0.03008846434961518	0.001063701012659536	-0.374049897461995	0.0400618663960397	0.01635349526577104	0.4281390920054223	-38.83977683807597	1.652197340016041	-2.949601461790816	13.36886973341132	-800.5342082312191	-58.12597277374217	-0.04157804994421962	0.7860956638684655	0.01091054969760272	1.527959909617684	-4.9149090442059	-0.095463558313771	-1.679645768084664	0.1890747289803279	-4.988710408157738	-4.988710408156047	-0.2974445721524792	0.01027952047899831	-1.207498766019222	-0.6310541239876619	-2.916101467421442e-08	-4.75872669976994e-09	1.515631925051274e-07	2.566552746652601e-08	-4.355981229094077e-08	1.830177880514359e-07	-3.593643144719876e-08
1.04	-0.1089901532280905	-0.05780564457877225	0.6836915300474571	1.32184816973672	-0.3281612581966016	0.07050991462354289	-0.9598867009568122	1.394776947521629	1.394776947521793	-0.06546320598634371	-0.1745290523152872	0.2794771929275041	0.06491795068260714	0.1367704628495562	0.02575693509309682	0.1333195297956568	-0.5022191338274047	-0.01201929024492254	-0.1337247712136478	0.004301590274176059	-0.3648692252571267	-0.364869225257114	-0.01510299604366987	6.026145135813741e-05	-0.02254488894969097	-0.02365728269357543	-0.3760128865581514	0.03044955133847156	0.0009444626323514052	-0.3732981748372768	0.03984101681264328	0.0165682633853065	0.4292574049363099	-38.91448834991782	1.549495385880478	-2.907516635798776	12.95407430841743	-801.120815482552	-58.1079814128227	-0.04162326668844676	0.7655734997611692	0.02808587888152018	1.519950369581667	-4.897173007125982	-0.1095806955446585	-1.646705671120948	0.2994150814217489	-4.986707198270459	-4.986707198270591	-0.3528472010424691	-0.02017524042037751	-1.207986433518835	-0.6496428877534519	-3.40115115331376e-08	-1.529196918571577e-08	1.778484043691535e-07	2.792833117244607e-08	-4.944072464424929e-08	1.936077394721097e-07	-4.151245404833879e-08
